# xmcd
#
# Track frame offsets:
#	150
#	26320
#	42906
#	54773
#	78442
#	91715
#	110672
#	123880
#	138400
#	150277
#	186058
# Disc length: 2638 seconds
# Revision: 4
# Processed by: cddbd v1.5.1PL2 Copyright (c) Steve Scherf et al.
#
# Submitted via: libkcddb 0.31
#
DISCID=760a4c0b
DTITLE=Matt Sweeney and Bonnie 'Prince' Billy - Superwolf
DYEAR=2005
DGENRE=Folk/Rock
TTITLE0=My Home Is The Sea
TTITLE1=Beast For Thee
TTITLE2=What Are You?
TTITLE3=Goat And Ram
TTITLE4=Lift Us Up
TTITLE5=Rudy Foolish
TTITLE6=Bed Is For Sleeping
TTITLE7=Only Someone Running
TTITLE8=Death In The Sea
TTITLE9=Blood Embrace
TTITLE10=I Gave You
EXTD=YEAR: 2005
EXTT0=
EXTT1=
EXTT2=
EXTT3=
EXTT4=
EXTT5=
EXTT6=
EXTT7=
EXTT8=
EXTT9=
EXTT10=
PLAYORDER=
